<?xml version="1.0" encoding="UTF-8" standalone="no"?>
<!DOCTYPE svg PUBLIC "-//W3C//DTD SVG 1.1//EN" "http://www.w3.org/Graphics/SVG/1.1/DTD/svg11.dtd">
<svg width="100%" height="100%" viewBox="0 0 200 150" version="1.1" xmlns="http://www.w3.org/2000/svg" xmlns:xlink="http://www.w3.org/1999/xlink" xml:space="preserve" xmlns:serif="http://www.serif.com/" style="fill-rule:evenodd;clip-rule:evenodd;stroke-linejoin:round;stroke-miterlimit:2;">
    <g transform="matrix(0.305429,0,0,0.305429,48.382546,-9.526757)">
        <path d="M168.3,240.9C144.9,240.9 128,256.2 128,279.1C128,302 147,317.3 170.4,317.3C184.6,317.3 197,311.7 204.8,302.3L188.6,292.9C184.3,297.6 177.8,300.3 170.5,300.3C160.3,300.3 151.7,295 148.5,286.5L208,286.5C208.5,284.1 208.7,281.7 208.7,279.1C208.6,256.1 191.8,240.9 168.3,240.9ZM148.2,271.6C150.9,263.1 158.1,257.8 168.3,257.8C178.5,257.8 185.7,263.1 188.4,271.6L148.2,271.6ZM396.8,240.9C373.4,240.9 356.5,256.2 356.5,279.1C356.5,302 375.5,317.3 398.9,317.3C413.1,317.3 425.5,311.7 433.3,302.3L417.1,292.9C412.8,297.6 406.3,300.3 399,300.3C388.8,300.3 380.2,295 377,286.5L436.5,286.5C437,284.1 437.2,281.7 437.2,279.1C437.2,256.1 420.3,240.9 396.8,240.9ZM376.8,271.6C379.5,263.1 386.7,257.8 396.9,257.8C407.1,257.8 414.3,263.1 417,271.6L376.8,271.6ZM294,279.1C294,291.8 302.3,300.3 315.2,300.3C323.9,300.3 330.5,296.3 333.9,289.9L350.2,299.3C343.5,310.5 330.8,317.3 315.2,317.3C291.7,317.3 274.9,302 274.9,279.1C274.9,256.2 291.8,240.9 315.2,240.9C330.8,240.9 343.4,247.7 350.2,258.9L333.9,268.3C330.5,261.8 324,257.9 315.2,257.9C302.3,257.8 294,266.3 294,279.1ZM469,217.5L469,315.1L449.9,315.1L449.9,217.5L469,217.5ZM-52.6,206.9L25.8,342.7L-131,342.7L-52.6,206.9ZM143.5,217.5L84.7,319.4L25.9,217.5L48,217.5L84.8,281.2L121.6,217.5L143.5,217.5ZM268.5,243L268.5,263.6C266.4,263 264.1,262.6 261.7,262.6C249.4,262.6 240.5,271.1 240.5,283.8L240.5,315.2L221.4,315.2L221.4,243L240.5,243L240.5,262.5C240.5,251.7 253,243 268.5,243Z" style="fill:rgb(242,242,242);fill-rule:nonzero;"/>
    </g>
</svg>
