<?xml version="1.0" encoding="UTF-8" standalone="no"?>
<!DOCTYPE svg PUBLIC "-//W3C//DTD SVG 1.1//EN" "http://www.w3.org/Graphics/SVG/1.1/DTD/svg11.dtd">
<svg width="100%" height="100%" viewBox="0 0 200 130" version="1.1" xmlns="http://www.w3.org/2000/svg" xmlns:xlink="http://www.w3.org/1999/xlink" xml:space="preserve" xmlns:serif="http://www.serif.com/" style="fill-rule:evenodd;clip-rule:evenodd;stroke-linejoin:round;stroke-miterlimit:2;">
    <g transform="matrix(1.538896,0,0,1.538896,6.504123,34.277819)">
        <path d="M44.987,6.147C45.23,6.111 45.485,6.05 45.75,5.965L45.75,3.758L44.132,3.758L44.132,4.374L45.044,4.374L45.044,5.507C44.781,5.564 44.529,5.595 44.298,5.595C43.837,5.595 43.483,5.454 43.238,5.176C42.993,4.895 42.869,4.488 42.869,3.951C42.869,3.441 43.007,3.038 43.279,2.743C43.551,2.449 43.922,2.303 44.392,2.303C44.75,2.303 45.107,2.382 45.462,2.548L45.716,1.95C45.304,1.772 44.87,1.686 44.41,1.686C43.698,1.686 43.136,1.884 42.727,2.284C42.321,2.684 42.12,3.236 42.12,3.945C42.12,4.662 42.3,5.217 42.659,5.611C43.022,6.004 43.533,6.202 44.2,6.202C44.481,6.202 44.744,6.184 44.987,6.147Z" style="fill:rgb(47,60,64);fill-rule:nonzero;"/>
        <path d="M55.874,3.028C55.874,2.601 55.739,2.28 55.465,2.067C55.193,1.855 54.773,1.748 54.204,1.748L52.963,1.748L52.963,6.14L53.681,6.14L53.681,4.384L54.392,4.384L55.442,6.14L56.261,6.14L55.02,4.196C55.588,3.966 55.874,3.574 55.874,3.028ZM54.91,3.604C54.758,3.73 54.516,3.792 54.18,3.792L53.682,3.792L53.682,2.355L54.157,2.355C54.483,2.355 54.728,2.408 54.89,2.518C55.052,2.626 55.135,2.805 55.135,3.052C55.135,3.295 55.058,3.48 54.91,3.604Z" style="fill:rgb(47,60,64);fill-rule:nonzero;"/>
        <path d="M66.546,6.14L64.903,1.732L64.121,1.732L62.477,6.14L63.235,6.14L63.663,4.921L65.346,4.921L65.785,6.14L66.546,6.14ZM63.875,4.302L64.273,3.157C64.375,2.863 64.455,2.595 64.509,2.352C64.53,2.429 64.567,2.555 64.618,2.728C64.673,2.9 64.715,3.027 64.745,3.107L65.156,4.303L63.875,4.303L63.875,4.302Z" style="fill:rgb(47,60,64);fill-rule:nonzero;"/>
        <path d="M76.067,6.14L76.946,6.14L76.946,1.748L76.288,1.748L76.288,4.05C76.288,4.214 76.296,4.44 76.308,4.729C76.321,5.02 76.326,5.186 76.332,5.232L76.313,5.232L74.158,1.747L73.287,1.747L73.287,6.139L73.938,6.139L73.938,3.857C73.938,3.548 73.923,3.209 73.896,2.836L73.879,2.639L73.904,2.639L76.067,6.14Z" style="fill:rgb(47,60,64);fill-rule:nonzero;"/>
        <path d="M18.411,29.904C18.161,29.852 18.014,30.069 17.943,30.529C17.791,31.507 17.553,32.456 16.418,34.389C14.953,36.88 12.896,37.115 11.611,37.115C8.889,37.115 7.094,34.552 6.385,31.969C5.785,29.783 5.48,22.593 6.213,18.794C6.932,15.079 9.899,12.615 11.545,12.615C14.221,12.615 15.2,13.7 15.601,14.843C16.051,16.123 17.198,20.253 17.55,21.29C17.755,21.888 18.122,22.389 18.394,22.274C18.711,22.141 18.594,21.774 18.412,21.008C18.134,19.837 16.029,13.932 16.629,11.534C16.779,10.938 16.315,10.65 15.848,11.277C15.495,11.749 14.443,12.506 12.138,12.027C11.796,11.956 11.524,11.927 11.348,11.927C8.092,11.927 4.346,15.12 3,19.045C1.605,23.104 1.824,27.808 3.612,32.291C5.486,36.986 9.535,38.242 11.631,38.242C15.066,38.242 16.18,36.633 17.204,34.972C18.38,33.065 18.563,31.177 18.627,30.692C18.707,30.089 18.609,29.946 18.411,29.904Z" style="fill:rgb(47,60,64);fill-rule:nonzero;"/>
        <path d="M39.202,15.187L39.202,13.43C39.202,12.957 39.992,12.658 41.394,12.613C41.562,12.607 41.672,12.555 41.724,12.458C41.775,12.358 41.745,12.248 41.704,12.182C41.678,12.143 41.635,12.118 41.588,12.118L33.148,12.118C33.102,12.118 33.059,12.143 33.033,12.182C32.991,12.248 32.962,12.36 33.013,12.458C33.064,12.555 33.175,12.607 33.366,12.614C34.744,12.659 35.533,12.957 35.533,13.431L35.533,23.217L26.79,23.217L26.79,13.432C26.79,12.959 27.58,12.66 28.981,12.615C29.149,12.609 29.26,12.557 29.311,12.46C29.363,12.361 29.333,12.25 29.291,12.184C29.266,12.145 29.222,12.12 29.176,12.12L20.735,12.12C20.689,12.12 20.644,12.145 20.619,12.184C20.578,12.25 20.548,12.361 20.599,12.46C20.651,12.557 20.761,12.609 20.954,12.616C22.33,12.661 23.12,12.959 23.12,13.433L23.12,15.19C23.12,15.198 23.12,15.206 23.122,15.215L23.122,34.569C23.121,34.577 23.12,34.585 23.12,34.594L23.12,36.351C23.12,36.824 22.329,37.122 20.928,37.169C20.761,37.173 20.65,37.227 20.598,37.323C20.546,37.422 20.576,37.533 20.618,37.599C20.643,37.638 20.686,37.661 20.734,37.661L29.175,37.661C29.221,37.661 29.265,37.638 29.29,37.598C29.332,37.533 29.362,37.422 29.31,37.323C29.258,37.227 29.148,37.172 28.954,37.166C27.579,37.12 26.789,36.823 26.789,36.35L26.789,24.346L35.532,24.346L35.532,36.348C35.532,36.821 34.743,37.119 33.339,37.166C33.173,37.17 33.062,37.224 33.011,37.319C32.96,37.419 32.989,37.53 33.031,37.596C33.057,37.635 33.099,37.658 33.146,37.658L41.586,37.658C41.633,37.658 41.677,37.635 41.702,37.596C41.743,37.53 41.773,37.419 41.722,37.319C41.67,37.224 41.559,37.169 41.366,37.163C39.99,37.117 39.2,36.82 39.2,36.347L39.2,34.59C39.2,34.583 39.2,34.576 39.198,34.571L39.198,15.207C39.202,15.2 39.202,15.193 39.202,15.187Z" style="fill:rgb(47,60,64);fill-rule:nonzero;"/>
        <path d="M72.463,12.12L72.463,12.141C72.238,12.12 71.516,12.118 69.036,12.117L64.02,12.117C63.973,12.117 63.931,12.142 63.905,12.181C63.864,12.246 63.833,12.358 63.886,12.457C63.935,12.554 64.046,12.606 64.239,12.613C65.617,12.658 66.407,12.956 66.407,13.43L66.407,15.187C66.407,15.192 66.407,15.197 66.408,15.201L66.408,34.576C66.407,34.582 66.407,34.586 66.407,34.591L66.407,36.348C66.407,36.821 65.617,37.119 64.216,37.166C64.047,37.17 63.938,37.224 63.886,37.322C63.834,37.419 63.864,37.53 63.906,37.596C63.932,37.635 63.974,37.658 64.021,37.658L72.463,37.658C72.51,37.658 72.553,37.635 72.577,37.596C72.619,37.53 72.649,37.419 72.597,37.32C72.545,37.224 72.435,37.169 72.243,37.163C70.867,37.117 70.076,36.82 70.076,36.347L70.076,26.09L72.186,26.09C72.19,26.09 72.196,26.09 72.201,26.089C72.826,26.081 74.933,25.943 76.786,24.593C78.682,23.213 79.643,21.079 79.643,18.254C79.641,14.184 77.226,12.12 72.463,12.12ZM70.075,24.528L70.075,13.656C70.075,13.078 71.106,12.997 72.22,12.997L72.65,12.998C75.876,12.998 76.126,17.33 76.126,18.66C76.126,25.065 72.683,24.963 71.993,24.963L71.119,24.963C70.475,24.918 70.075,24.752 70.075,24.528Z" style="fill:rgb(47,60,64);fill-rule:nonzero;"/>
        <path d="M100.085,12.117L93.985,12.117C93.932,12.117 93.883,12.15 93.862,12.198C93.85,12.227 93.794,12.372 93.871,12.494C93.903,12.551 93.977,12.617 94.122,12.625L94.175,12.627C95.778,12.691 96.494,13.017 96.494,13.505L96.494,30.882C96.494,34.228 94.079,36.748 91.873,36.748C89.193,36.748 87.012,34.452 87.012,31.106L87.012,15.411C87.014,15.399 87.015,15.387 87.015,15.375L87.015,13.505C87.015,12.994 87.807,12.674 89.209,12.625C89.372,12.621 89.481,12.567 89.535,12.469C89.606,12.338 89.527,12.197 89.518,12.184C89.494,12.143 89.449,12.117 89.402,12.117L80.96,12.117C80.913,12.117 80.869,12.143 80.844,12.184C80.835,12.197 80.757,12.338 80.828,12.469C80.882,12.567 80.992,12.62 81.179,12.626C82.558,12.674 83.347,12.994 83.347,13.505L83.347,13.662C83.344,13.674 83.343,13.685 83.343,13.697L83.343,28.456C83.343,37.12 87.015,37.811 91.816,37.811C96.183,37.811 97.63,33.479 97.63,30.919L97.63,13.506C97.63,13.017 98.371,12.69 99.9,12.628L99.948,12.626C100.095,12.618 100.167,12.553 100.2,12.495C100.279,12.372 100.223,12.228 100.21,12.199C100.188,12.15 100.14,12.117 100.085,12.117Z" style="fill:rgb(47,60,64);fill-rule:nonzero;"/>
        <path d="M62.636,37.169C62.311,37.158 60.818,37.029 60.592,36.207C60.507,35.895 56.701,21.385 56.151,19.17C55.432,16.285 54.446,13.371 54.42,11.529C54.416,11.27 54.141,11.239 54.007,11.351C53.297,11.949 52.494,12.677 51.241,13.109C51.179,13.13 51.046,13.219 51.046,13.38C51.047,14.154 50.469,16.373 50.26,17.142C49.952,18.265 45.268,35.484 45.065,36.23C44.862,36.975 43.572,37.148 43.11,37.169C42.965,37.176 42.892,37.244 42.859,37.299C42.782,37.426 42.836,37.571 42.848,37.599C42.87,37.649 42.919,37.68 42.973,37.68L49.077,37.68C49.132,37.68 49.181,37.648 49.202,37.599C49.214,37.572 49.27,37.426 49.193,37.3C49.158,37.245 49.087,37.178 48.94,37.169L48.89,37.167C47.228,37.097 46.411,36.957 46.163,36.614C46.117,36.551 46.106,36.49 46.136,36.39C46.136,36.39 47.929,29.765 48.712,26.888L54.406,26.888C54.891,28.82 56.648,35.439 56.731,35.749C56.768,35.893 56.818,36.081 56.871,36.294C56.895,36.411 56.873,36.51 56.799,36.602C56.552,36.92 55.793,37.127 54.578,37.169C54.555,37.169 54.536,37.172 54.517,37.175C54.209,37.217 54.279,37.68 54.531,37.68L62.83,37.68C62.878,37.68 62.924,37.656 62.947,37.615C62.957,37.599 63.035,37.458 62.962,37.326C62.909,37.229 62.799,37.175 62.636,37.169ZM51.638,16.972C51.812,16.972 51.868,17.265 51.942,17.442C52.087,17.794 52.755,20.372 54.11,25.753L49.02,25.753C50.311,21.009 51.202,17.74 51.261,17.52C51.343,17.219 51.422,16.972 51.638,16.972Z" style="fill:rgb(47,60,64);fill-rule:nonzero;"/>
        <path d="M119.134,37.169C117.532,37.169 116.885,37.12 116.885,35.897C116.885,34.554 116.88,31.889 116.88,29.639C116.88,28.285 114.693,25.529 111.961,25.529C113.896,24.807 116.642,22.979 116.642,18.255C116.642,14.184 114.228,12.12 109.465,12.12L109.465,12.141C109.238,12.12 108.516,12.118 106.037,12.117L101.021,12.117C100.975,12.117 100.932,12.142 100.907,12.181C100.866,12.246 100.835,12.358 100.886,12.457C100.938,12.554 101.048,12.606 101.241,12.613C102.618,12.658 103.408,12.956 103.408,13.43L103.408,15.187C103.408,15.192 103.409,15.197 103.409,15.201L103.409,34.576C103.409,34.582 103.408,34.586 103.408,34.591L103.408,36.348C103.408,36.821 102.618,37.119 101.215,37.166C101.048,37.17 100.938,37.224 100.885,37.322C100.834,37.421 100.866,37.53 100.906,37.597C100.931,37.636 100.975,37.658 101.02,37.658L109.461,37.658C109.508,37.658 109.551,37.635 109.576,37.596C109.618,37.53 109.65,37.419 109.597,37.32C109.545,37.224 109.434,37.169 109.243,37.163C107.865,37.117 107.076,36.82 107.076,36.347L107.076,26.09L109.185,26.09C109.831,26.09 113.218,26.683 113.218,29.212L113.218,35.35C113.218,37.022 114.173,37.657 115.247,37.657L119.141,37.657C119.561,37.658 119.458,37.169 119.134,37.169ZM107.078,24.518L107.078,13.657C107.078,13.079 108.11,12.998 109.223,12.998L109.654,12.999C112.879,12.999 113.13,17.331 113.13,18.661C113.13,25.066 109.687,24.952 108.996,24.952L108.121,24.953C107.477,24.907 107.078,24.741 107.078,24.518Z" style="fill:rgb(47,60,64);fill-rule:nonzero;"/>
    </g>
</svg>
