<?xml version="1.0" encoding="UTF-8" standalone="no"?>
<!DOCTYPE svg PUBLIC "-//W3C//DTD SVG 1.1//EN" "http://www.w3.org/Graphics/SVG/1.1/DTD/svg11.dtd">
<svg width="100%" height="100%" viewBox="0 0 200 130" version="1.1" xmlns="http://www.w3.org/2000/svg" xmlns:xlink="http://www.w3.org/1999/xlink" xml:space="preserve" xmlns:serif="http://www.serif.com/" style="fill-rule:evenodd;clip-rule:evenodd;stroke-linejoin:round;stroke-miterlimit:2;">
    <g transform="matrix(0,-0.613461,-0.613745,0,132.626465,143.688788)">
        <path d="M108.843,134.564C95.547,138.483 85.843,150.781 85.843,165.346C85.843,183.067 100.209,197.433 117.931,197.433C135.652,197.433 150.018,183.067 150.018,165.346C150.018,165.273 150.017,165.2 150.017,165.128C163.313,161.21 173.018,148.911 173.018,134.345C173.018,116.624 158.652,102.258 140.931,102.258C123.21,102.258 108.843,116.624 108.843,134.345L108.843,134.564Z" style="fill:rgb(219,37,40);"/>
        <g transform="matrix(1,0,0,1,-1.290705,29.548772)">
            <path d="M127.025,79.32C105.331,79.32 87.743,96.906 87.743,118.602C87.743,140.296 105.331,157.883 127.025,157.883C148.72,157.883 166.308,140.296 166.308,118.602C166.308,96.906 148.72,79.32 127.025,79.32" style="fill-rule:nonzero;"/>
        </g>
        <g transform="matrix(-64.657823,0,0,-64.65782,148.401722,190.404396)">
            <circle cx="0.289" cy="0.623" r="0.608" style="fill:url(#_Radial1);"/>
        </g>
        <g transform="matrix(0,-1,-1,0,298.443051,274.957475)">
            <path d="M110.408,129.241C127.574,124.219 138.369,130.666 145.34,135.838C145.34,135.838 127.275,128.416 113.107,135.688C99.981,142.425 93.997,154.308 91.102,158.82L94.966,162.149L76.525,167.921L77.65,147.233L81.721,150.74C83.221,148.684 94.449,133.91 110.408,129.241ZM141.457,213.105C124.291,218.127 113.496,211.68 106.525,206.508C106.525,206.508 124.591,213.93 138.759,206.658C151.885,199.922 157.868,188.039 160.764,183.525L156.899,180.197L175.34,174.425L174.215,195.114L170.144,191.606C168.644,193.662 157.417,208.436 141.457,213.105Z"/>
        </g>
        <g transform="matrix(0,-1,-1,0,201.365848,275.223155)">
            <path d="M140.723,114.029C123.557,119.051 112.763,112.604 105.791,107.431C105.791,107.431 123.857,114.853 138.025,107.581C151.151,100.845 157.135,88.962 160.03,84.449L156.165,81.12L174.606,75.348L173.482,96.037L169.41,92.53C167.91,94.585 156.683,109.359 140.723,114.029ZM108.674,30.164C125.84,25.141 136.635,31.588 143.606,36.761C143.606,36.761 125.54,29.339 111.372,36.611C98.246,43.347 92.263,55.23 89.368,59.743L93.232,63.072L74.791,68.844L75.916,48.155L79.987,51.662C81.487,49.607 92.714,34.833 108.674,30.164Z" style="fill:rgb(244,192,10);"/>
        </g>
        <g transform="matrix(0,-1,-1,0,288.618813,275.397084)">
            <path d="M182.965,134.601L188.085,134.601C191.189,134.601 193.325,135.986 193.325,138.353L193.325,138.388C193.325,140.982 190.785,142.297 187.822,142.297L184.014,142.297L184.014,146.872L182.965,146.872L182.965,134.601ZM187.883,141.455C190.504,141.455 192.277,140.281 192.277,138.441L192.277,138.405C192.277,136.459 190.524,135.443 188.004,135.443L184.014,135.443L184.014,141.455L187.883,141.455Z" style="fill:rgb(41,34,85);"/>
        </g>
        <g transform="matrix(0,-1,-1,0,288.618813,275.397084)">
            <path d="M195.965,138.743L196.952,138.743L196.952,141.285C197.779,139.672 199.452,138.55 201.507,138.603L201.507,139.549L201.407,139.549C199.048,139.549 196.952,141.127 196.952,144.019L196.952,147.683L195.965,147.683L195.965,138.743Z" style="fill:rgb(41,34,85);"/>
        </g>
        <g transform="matrix(0,-1,-1,0,288.618813,275.397084)">
            <path d="M202.965,143.316L202.965,143.281C202.965,140.775 205.202,138.601 208.266,138.601C211.309,138.601 213.526,140.739 213.526,143.246L213.526,143.281C213.526,145.788 211.289,147.962 208.226,147.962C205.182,147.962 202.965,145.823 202.965,143.316ZM212.458,143.316L212.458,143.281C212.458,141.107 210.603,139.407 208.226,139.407C205.787,139.407 204.034,141.143 204.034,143.246L204.034,143.281C204.034,145.455 205.888,147.156 208.266,147.156C210.704,147.156 212.458,145.42 212.458,143.316Z" style="fill:rgb(41,34,85);"/>
        </g>
        <g transform="matrix(0,-1,-1,0,288.618813,275.397084)">
            <path d="M216.965,138.811L217.953,138.811L217.953,140.406C218.598,139.477 219.544,138.601 221.379,138.601C223.193,138.601 224.261,139.495 224.845,140.529C225.51,139.53 226.639,138.601 228.554,138.601C230.993,138.601 232.504,140.09 232.504,142.334L232.504,147.751L231.516,147.751L231.516,142.44C231.516,140.494 230.388,139.39 228.474,139.39C226.739,139.39 225.228,140.529 225.228,142.545L225.228,147.751L224.241,147.751L224.241,142.387C224.241,140.511 223.092,139.39 221.238,139.39C219.384,139.39 217.953,140.792 217.953,142.597L217.953,147.751L216.965,147.751L216.965,138.811Z" style="fill:rgb(41,34,85);"/>
        </g>
        <g transform="matrix(0,-1,-1,0,288.618813,275.397084)">
            <path d="M234.965,143.316L234.965,143.281C234.965,140.775 237.201,138.601 240.265,138.601C243.308,138.601 245.525,140.739 245.525,143.246L245.525,143.281C245.525,145.788 243.288,147.962 240.224,147.962C237.181,147.962 234.965,145.823 234.965,143.316ZM244.457,143.316L244.457,143.281C244.457,141.107 242.603,139.407 240.224,139.407C237.786,139.407 236.032,141.143 236.032,143.246L236.032,143.281C236.032,145.455 237.886,147.156 240.265,147.156C242.704,147.156 244.457,145.42 244.457,143.316Z" style="fill:rgb(41,34,85);"/>
        </g>
        <g transform="matrix(0,-1,-1,0,288.618813,275.397084)">
            <path d="M248.457,145.102L248.457,139.247L246.965,139.247L246.965,138.458L248.457,138.458L248.457,135.601L249.445,135.601L249.445,138.458L253.052,138.458L253.052,139.247L249.445,139.247L249.445,145.014C249.445,146.294 250.291,146.75 251.5,146.75C252.004,146.75 252.428,146.662 253.012,146.434L253.012,147.241C252.468,147.45 251.984,147.556 251.339,147.556C249.726,147.556 248.457,146.802 248.457,145.102Z" style="fill:rgb(41,34,85);"/>
        </g>
        <g transform="matrix(0,-1,-1,0,288.618813,275.397084)">
            <path d="M254.965,143.316L254.965,143.281C254.965,140.775 257.202,138.601 260.266,138.601C263.309,138.601 265.525,140.739 265.525,143.246L265.525,143.281C265.525,145.788 263.289,147.962 260.225,147.962C257.182,147.962 254.965,145.823 254.965,143.316ZM264.458,143.316L264.458,143.281C264.458,141.107 262.603,139.407 260.225,139.407C257.786,139.407 256.033,141.143 256.033,143.246L256.033,143.281C256.033,145.455 257.887,147.156 260.266,147.156C262.704,147.156 264.458,145.42 264.458,143.316Z" style="fill:rgb(41,34,85);"/>
        </g>
        <g transform="matrix(0,-1,-1,0,288.618813,275.397084)">
            <path d="M268.965,138.743L269.952,138.743L269.952,141.285C270.779,139.672 272.452,138.55 274.507,138.603L274.507,139.549L274.406,139.549C272.048,139.549 269.952,141.127 269.952,144.019L269.952,147.683L268.965,147.683L268.965,138.743Z" style="fill:rgb(41,34,85);"/>
        </g>
        <g transform="matrix(0,-1,-1,0,288.618813,275.397084)">
            <path d="M274.965,145.087L274.965,145.052C274.965,143.176 276.799,142.142 279.46,142.142C280.911,142.142 281.878,142.3 282.866,142.528L282.866,142.142C282.866,140.319 281.596,139.408 279.48,139.408C278.21,139.408 277.202,139.705 276.255,140.126L275.892,139.372C277.021,138.899 278.11,138.601 279.541,138.601C280.951,138.601 282.039,138.933 282.785,139.583C283.491,140.196 283.833,141.038 283.833,142.107L283.833,147.681L282.866,147.681L282.866,146.191C282.16,147.032 280.891,147.892 278.935,147.892C277.021,147.892 274.965,146.962 274.965,145.087ZM282.886,144.333L282.886,143.316C282.019,143.124 280.871,142.913 279.399,142.913C277.223,142.913 276.014,143.737 276.014,144.999L276.014,145.034C276.014,146.332 277.425,147.085 278.996,147.085C281.092,147.085 282.886,145.963 282.886,144.333Z" style="fill:rgb(41,34,85);"/>
        </g>
        <g transform="matrix(0,-1,-1,0,288.618813,275.397084)">
            <path d="M292.965,142.963L292.965,142.928C292.965,140.035 295.484,138.247 297.963,138.247C300.019,138.247 301.329,139.264 302.195,140.386L302.195,134.601L303.183,134.601L303.183,147.398L302.195,147.398L302.195,145.4C301.288,146.574 300.019,147.608 297.963,147.608C295.484,147.608 292.965,145.873 292.965,142.963ZM302.255,142.946L302.255,142.91C302.255,140.614 300.22,139.071 298.063,139.071C295.807,139.071 294.033,140.509 294.033,142.893L294.033,142.928C294.033,145.277 295.886,146.785 298.063,146.785C300.22,146.785 302.255,145.224 302.255,142.946Z" style="fill:rgb(41,34,85);"/>
        </g>
        <g transform="matrix(0,-1,-1,0,288.618813,275.397084)">
            <path d="M305.965,143.298L305.965,143.264C305.965,140.686 308.061,138.601 310.842,138.601C313.724,138.601 315.558,140.634 315.558,143.281C315.558,143.439 315.558,143.491 315.538,143.632L307.013,143.632C307.174,145.858 309.048,147.155 311.044,147.155C312.656,147.155 313.704,146.542 314.571,145.752L315.256,146.278C314.208,147.261 312.959,147.961 311.003,147.961C308.303,147.961 305.965,146.103 305.965,143.298ZM314.49,142.86C314.329,141.055 313.16,139.39 310.801,139.39C308.766,139.39 307.174,140.88 307.013,142.86L314.49,142.86Z" style="fill:rgb(41,34,85);"/>
        </g>
        <g transform="matrix(0,-1,-1,0,288.618813,275.397084)">
            <path d="M181.965,152.601L188.204,152.601L194.92,168.338L201.637,152.601L207.728,152.601L197.343,175.105L192.351,175.105L181.965,152.601Z" style="fill:rgb(41,34,85);"/>
        </g>
        <g transform="matrix(0,-1,-1,0,288.618813,275.397084)">
            <rect x="211.965" y="152.601" width="5.651" height="22.344" style="fill:rgb(41,34,85);"/>
        </g>
        <g transform="matrix(0,-1,-1,0,288.618813,275.397084)">
            <path d="M221.965,152.601L228.205,152.601L234.921,168.338L241.637,152.601L247.729,152.601L237.343,175.105L232.351,175.105L221.965,152.601Z" style="fill:rgb(41,34,85);"/>
        </g>
        <g transform="matrix(0,-1,-1,0,288.618813,275.397084)">
            <rect x="251.965" y="152.601" width="5.651" height="22.344" style="fill:rgb(41,34,85);"/>
        </g>
        <g transform="matrix(0,-1,-1,0,288.618813,275.397084)">
            <path d="M263.965,152.601L283.342,152.601L283.342,156.974L269.58,156.974L269.58,161.507L281.691,161.507L281.691,165.88L269.58,165.88L269.58,170.572L283.525,170.572L283.525,174.945L263.965,174.945L263.965,152.601Z" style="fill:rgb(41,34,85);"/>
        </g>
        <g transform="matrix(0,-1,-1,0,288.618813,275.397084)">
            <path d="M288.965,152.601L294.177,152.601L306.213,166.358L306.213,152.601L311.792,152.601L311.792,174.945L306.984,174.945L294.543,160.741L294.543,174.945L288.965,174.945L288.965,152.601Z" style="fill:rgb(41,34,85);"/>
        </g>
        <g transform="matrix(0,-1,-1,0,288.618813,275.397084)">
            <path d="M317.965,152.601L327.984,152.601C336.057,152.601 341.636,157.421 341.636,163.709L341.636,163.773C341.636,170.062 336.057,174.945 327.984,174.945L317.965,174.945L317.965,152.601ZM323.616,157.038L323.616,170.508L327.984,170.508C332.571,170.508 335.727,167.795 335.727,163.837L335.727,163.773C335.727,159.815 332.571,157.038 327.984,157.038L323.616,157.038Z" style="fill:rgb(41,34,85);"/>
        </g>
        <g transform="matrix(0,-1,-1,0,288.618813,275.397084)">
            <path d="M352.974,152.601L358.185,152.601L369.195,175.104L363.287,175.104L360.938,170.092L350.074,170.092L347.726,175.104L341.965,175.104L352.974,152.601ZM358.919,165.751L355.506,158.506L352.092,165.751L358.919,165.751Z" style="fill:rgb(41,34,85);"/>
        </g>
        <g transform="matrix(0,-1,-1,0,288.618813,275.397084)">
            <path d="M95.965,143.601L102.455,143.601L109.648,155.174L116.841,143.601L123.331,143.601L123.331,170.967L117.35,170.967L117.35,153.101L109.648,164.79L109.492,164.79L101.869,153.218L101.869,170.967L95.965,170.967L95.965,143.601Z" style="fill:white;"/>
        </g>
        <g transform="matrix(0,-1,-1,0,288.618813,275.397084)">
            <path d="M127.965,156.831L127.965,156.753C127.965,148.973 134.025,142.601 142.313,142.601C147.199,142.601 150.249,143.931 153.064,146.354L149.272,150.928C147.199,149.169 145.245,148.152 142.117,148.152C137.739,148.152 134.26,152.022 134.26,156.675L134.26,156.753C134.26,161.757 137.699,165.432 142.548,165.432C144.775,165.432 146.691,164.885 148.216,163.79L148.216,159.881L142.156,159.881L142.156,154.681L154.041,154.681L154.041,166.566C151.226,168.951 147.356,170.905 142.352,170.905C133.829,170.905 127.965,164.963 127.965,156.831Z" style="fill:white;"/>
        </g>
        <g transform="matrix(0,-1,-1,0,288.618813,275.397084)">
            <path d="M230.332,188.8L236.682,188.8L236.682,189.411L230.994,189.411L230.994,192.918L236.108,192.918L236.108,193.53L230.994,193.53L230.994,197.113L236.745,197.113L236.745,197.725L230.332,197.725L230.332,188.8Z" style="fill:rgb(41,34,85);"/>
        </g>
        <g transform="matrix(0,-1,-1,0,288.618813,275.397084)">
            <path d="M238.332,194.346L238.332,194.32C238.332,192.217 239.925,190.916 241.494,190.916C242.795,190.916 243.623,191.655 244.172,192.471L244.172,188.264L244.797,188.264L244.797,197.572L244.172,197.572L244.172,196.118C243.598,196.973 242.795,197.725 241.494,197.725C239.925,197.725 238.332,196.462 238.332,194.346ZM244.21,194.333L244.21,194.307C244.21,192.637 242.923,191.515 241.558,191.515C240.13,191.515 239.008,192.561 239.008,194.295L239.008,194.32C239.008,196.029 240.181,197.126 241.558,197.126C242.923,197.126 244.21,195.991 244.21,194.333Z" style="fill:rgb(41,34,85);"/>
        </g>
        <g transform="matrix(0,-1,-1,0,288.618813,275.397084)">
            <rect x="247.409" y="191.222" width="0.625" height="6.503" style="fill:rgb(41,34,85);"/>
        </g>
        <g transform="matrix(0,-1,-1,0,288.618813,275.397084)">
            <rect x="247.332" y="188.672" width="0.778" height="0.855" style="fill:white;"/>
        </g>
        <g transform="matrix(0,-1,-1,0,288.618813,275.397084)">
            <rect x="254.598" y="191.222" width="0.625" height="6.503" style="fill:rgb(41,34,85);"/>
        </g>
        <g transform="matrix(0,-1,-1,0,288.618813,275.397084)">
            <rect x="254.521" y="188.672" width="0.778" height="0.855" style="fill:white;"/>
        </g>
        <g transform="matrix(0,-1,-1,0,288.618813,275.397084)">
            <path d="M250.276,191.796L249.332,191.796L249.332,191.222L250.276,191.222L250.276,190.585C250.276,189.833 250.466,189.272 250.849,188.889C251.193,188.544 251.639,188.379 252.214,188.379C252.609,188.379 252.89,188.431 253.182,188.532L253.182,189.119C252.812,189.003 252.558,188.953 252.214,188.953C251.333,188.953 250.9,189.501 250.9,190.598L250.9,191.222L253.17,191.222L253.17,191.796L250.9,191.796L250.9,197.725L250.276,197.725L250.276,191.796Z" style="fill:rgb(41,34,85);"/>
        </g>
        <g transform="matrix(0,-1,-1,0,288.618813,275.397084)">
            <path d="M257.332,194.346L257.332,194.32C257.332,192.497 258.772,190.917 260.647,190.917C261.871,190.917 262.636,191.464 263.248,192.115L262.803,192.574C262.241,192 261.603,191.503 260.634,191.503C259.156,191.503 258.007,192.727 258.007,194.296L258.007,194.32C258.007,195.902 259.206,197.139 260.686,197.139C261.603,197.139 262.317,196.667 262.866,196.054L263.3,196.438C262.636,197.189 261.833,197.725 260.647,197.725C258.772,197.725 257.332,196.17 257.332,194.346Z" style="fill:rgb(41,34,85);"/>
        </g>
        <g transform="matrix(0,-1,-1,0,288.618813,275.397084)">
            <path d="M265.332,195.686L265.332,195.659C265.332,194.296 266.492,193.543 268.175,193.543C269.093,193.543 269.705,193.658 270.33,193.824L270.33,193.543C270.33,192.217 269.527,191.554 268.187,191.554C267.384,191.554 266.746,191.771 266.148,192.077L265.918,191.528C266.632,191.184 267.321,190.967 268.227,190.967C269.119,190.967 269.807,191.21 270.279,191.682C270.725,192.128 270.941,192.74 270.941,193.518L270.941,197.573L270.33,197.573L270.33,196.488C269.884,197.1 269.08,197.725 267.843,197.725C266.632,197.725 265.332,197.049 265.332,195.686ZM270.343,195.137L270.343,194.398C269.795,194.257 269.067,194.104 268.137,194.104C266.76,194.104 265.995,194.703 265.995,195.622L265.995,195.647C265.995,196.591 266.887,197.139 267.882,197.139C269.208,197.139 270.343,196.323 270.343,195.137Z" style="fill:rgb(41,34,85);"/>
        </g>
        <g transform="matrix(0,-1,-1,0,288.618813,275.397084)">
            <path d="M272.332,191.222L272.957,191.222L272.957,192.433C273.403,191.668 274.117,191.069 275.303,191.069C276.948,191.069 277.904,192.179 277.904,193.747L277.904,197.725L277.279,197.725L277.279,193.862C277.279,192.523 276.54,191.644 275.214,191.644C273.939,191.644 272.957,192.599 272.957,193.963L272.957,197.725L272.332,197.725L272.332,191.222Z" style="fill:rgb(41,34,85);"/>
        </g>
        <g transform="matrix(0,-1,-1,0,288.618813,275.397084)">
            <path d="M280.332,194.346L280.332,194.32C280.332,192.217 281.926,190.916 283.494,190.916C284.795,190.916 285.624,191.655 286.172,192.471L286.172,188.264L286.798,188.264L286.798,197.572L286.172,197.572L286.172,196.118C285.598,196.973 284.795,197.725 283.494,197.725C281.926,197.725 280.332,196.462 280.332,194.346ZM286.211,194.333L286.211,194.307C286.211,192.637 284.923,191.515 283.559,191.515C282.13,191.515 281.008,192.561 281.008,194.295L281.008,194.32C281.008,196.029 282.181,197.126 283.559,197.126C284.923,197.126 286.211,195.991 286.211,194.333Z" style="fill:rgb(41,34,85);"/>
        </g>
        <g transform="matrix(0,-1,-1,0,288.618813,275.397084)">
            <path d="M288.332,194.346L288.332,194.32C288.332,192.497 289.748,190.917 291.686,190.917C293.611,190.917 295.013,192.471 295.013,194.296L295.013,194.32C295.013,196.144 293.598,197.725 291.66,197.725C289.735,197.725 288.332,196.17 288.332,194.346ZM294.338,194.346L294.338,194.32C294.338,192.739 293.165,191.503 291.66,191.503C290.116,191.503 289.007,192.765 289.007,194.296L289.007,194.32C289.007,195.902 290.18,197.139 291.686,197.139C293.228,197.139 294.338,195.876 294.338,194.346Z" style="fill:rgb(41,34,85);"/>
        </g>
        <g transform="matrix(0,-1,-1,0,288.618813,275.397084)">
            <path d="M300.332,194.333L300.332,194.308C300.332,192.434 301.658,190.917 303.418,190.917C305.241,190.917 306.401,192.396 306.401,194.321C306.401,194.435 306.401,194.474 306.389,194.576L300.995,194.576C301.097,196.195 302.283,197.139 303.545,197.139C304.565,197.139 305.228,196.692 305.776,196.119L306.21,196.501C305.547,197.216 304.757,197.725 303.519,197.725C301.811,197.725 300.332,196.373 300.332,194.333ZM305.725,194.015C305.624,192.701 304.884,191.491 303.392,191.491C302.104,191.491 301.097,192.574 300.995,194.015L305.725,194.015Z" style="fill:rgb(41,34,85);"/>
        </g>
        <g transform="matrix(0,-1,-1,0,288.618813,275.397084)">
            <rect x="308.332" y="188.417" width="0.625" height="9.308" style="fill:rgb(41,34,85);"/>
        </g>
        <g transform="matrix(0,-1,-1,0,288.618813,275.397084)">
            <path d="M314.965,191.101L315.59,191.101L315.59,192.555C316.138,191.701 316.98,190.949 318.267,190.949C319.835,190.949 321.429,192.211 321.429,194.328L321.429,194.352C321.429,196.456 319.835,197.757 318.267,197.757C316.967,197.757 316.138,197.018 315.59,196.202L315.59,199.644L314.965,199.644L314.965,191.101ZM320.754,194.378L320.754,194.352C320.754,192.644 319.581,191.547 318.204,191.547C316.839,191.547 315.551,192.683 315.551,194.34L315.551,194.365C315.551,196.036 316.839,197.158 318.204,197.158C319.631,197.158 320.754,196.112 320.754,194.378Z" style="fill:rgb(41,34,85);"/>
        </g>
        <g transform="matrix(0,-1,-1,0,288.618813,275.397084)">
            <path d="M323.965,191.254L324.59,191.254L324.59,193.103C325.113,191.93 326.171,191.114 327.472,191.152L327.472,191.841L327.408,191.841C325.917,191.841 324.59,192.988 324.59,195.092L324.59,197.757L323.965,197.757L323.965,191.254Z" style="fill:rgb(41,34,85);"/>
        </g>
        <g transform="matrix(0,-1,-1,0,288.618813,275.397084)">
            <path d="M327.965,194.365L327.965,194.34C327.965,192.466 329.29,190.949 331.05,190.949C332.874,190.949 334.034,192.428 334.034,194.353C334.034,194.467 334.034,194.506 334.021,194.608L328.628,194.608C328.73,196.227 329.915,197.171 331.178,197.171C332.198,197.171 332.861,196.724 333.409,196.151L333.843,196.533C333.18,197.248 332.389,197.757 331.152,197.757C329.444,197.757 327.965,196.405 327.965,194.365ZM333.358,194.047C333.256,192.733 332.517,191.523 331.025,191.523C329.736,191.523 328.73,192.606 328.628,194.047L333.358,194.047Z" style="fill:rgb(41,34,85);"/>
        </g>
        <g transform="matrix(0,-1,-1,0,288.618813,275.397084)">
            <path d="M335.965,196.814L336.335,196.316C337.048,196.865 337.839,197.171 338.668,197.171C339.548,197.171 340.236,196.7 340.236,195.935L340.236,195.908C340.236,195.143 339.42,194.876 338.515,194.608C337.444,194.302 336.283,193.997 336.283,192.824L336.283,192.798C336.283,191.752 337.164,191 338.426,191C339.203,191 340.083,191.268 340.734,191.714L340.403,192.236C339.803,191.842 339.102,191.586 338.401,191.586C337.495,191.586 336.921,192.072 336.921,192.721L336.921,192.747C336.921,193.474 337.801,193.729 338.732,194.01C339.777,194.315 340.874,194.685 340.874,195.832L340.874,195.858C340.874,197.019 339.892,197.757 338.63,197.757C337.673,197.757 336.667,197.376 335.965,196.814Z" style="fill:rgb(41,34,85);"/>
        </g>
        <g transform="matrix(0,-1,-1,0,288.618813,275.397084)">
            <path d="M341.965,194.365L341.965,194.34C341.965,192.466 343.291,190.949 345.051,190.949C346.874,190.949 348.035,192.428 348.035,194.353C348.035,194.467 348.035,194.506 348.022,194.608L342.629,194.608C342.73,196.227 343.916,197.171 345.178,197.171C346.198,197.171 346.862,196.724 347.41,196.151L347.844,196.533C347.181,197.248 346.39,197.757 345.153,197.757C343.445,197.757 341.965,196.405 341.965,194.365ZM347.359,194.047C347.257,192.733 346.517,191.523 345.026,191.523C343.737,191.523 342.73,192.606 342.629,194.047L347.359,194.047Z" style="fill:rgb(41,34,85);"/>
        </g>
        <g transform="matrix(0,-1,-1,0,288.618813,275.397084)">
            <path d="M349.965,191.254L350.59,191.254L350.59,192.465C351.036,191.7 351.75,191.101 352.936,191.101C354.582,191.101 355.537,192.211 355.537,193.779L355.537,197.757L354.912,197.757L354.912,193.894C354.912,192.555 354.174,191.676 352.847,191.676C351.572,191.676 350.59,192.631 350.59,193.995L350.59,197.757L349.965,197.757L349.965,191.254Z" style="fill:rgb(41,34,85);"/>
        </g>
        <g transform="matrix(0,-1,-1,0,288.618813,275.397084)">
            <path d="M357.908,195.972L357.908,191.714L356.965,191.714L356.965,191.139L357.908,191.139L357.908,189.062L358.533,189.062L358.533,191.139L360.815,191.139L360.815,191.714L358.533,191.714L358.533,195.908C358.533,196.839 359.068,197.171 359.833,197.171C360.152,197.171 360.42,197.107 360.79,196.941L360.79,197.528C360.446,197.681 360.14,197.757 359.731,197.757C358.711,197.757 357.908,197.21 357.908,195.972Z" style="fill:rgb(41,34,85);"/>
        </g>
        <g transform="matrix(0,-1,-1,0,288.618813,275.397084)">
            <path d="M362.965,194.365L362.965,194.34C362.965,192.466 364.29,190.949 366.05,190.949C367.873,190.949 369.034,192.428 369.034,194.353C369.034,194.467 369.034,194.506 369.021,194.608L363.628,194.608C363.73,196.227 364.915,197.171 366.177,197.171C367.198,197.171 367.861,196.724 368.409,196.151L368.843,196.533C368.18,197.248 367.389,197.757 366.152,197.757C364.444,197.757 362.965,196.405 362.965,194.365ZM368.358,194.047C368.256,192.733 367.516,191.523 366.025,191.523C364.736,191.523 363.73,192.606 363.628,194.047L368.358,194.047Z" style="fill:rgb(41,34,85);"/>
        </g>
        <g transform="matrix(0,-1,-1,0,206.396208,275.16616)">
            <rect x="181.734" y="97.378" width="187.545" height="4.824" style="fill:rgb(219,37,40);"/>
        </g>
    </g>
    <defs>
        <radialGradient id="_Radial1" cx="0" cy="0" r="1" gradientUnits="userSpaceOnUse" gradientTransform="matrix(0,1,1,0,-0.333882,0.333882)"><stop offset="0" style="stop-color:white;stop-opacity:1"/><stop offset="0.69" style="stop-color:rgb(41,34,85);stop-opacity:1"/><stop offset="1" style="stop-color:rgb(41,34,85);stop-opacity:1"/></radialGradient>
    </defs>
</svg>
