<?xml version="1.0" encoding="UTF-8" standalone="no"?>
<!DOCTYPE svg PUBLIC "-//W3C//DTD SVG 1.1//EN" "http://www.w3.org/Graphics/SVG/1.1/DTD/svg11.dtd">
<svg width="100%" height="100%" viewBox="0 0 200 35" version="1.1" xmlns="http://www.w3.org/2000/svg" xmlns:xlink="http://www.w3.org/1999/xlink" xml:space="preserve" xmlns:serif="http://www.serif.com/" style="fill-rule:evenodd;clip-rule:evenodd;stroke-linejoin:round;stroke-miterlimit:2;">
    <g transform="matrix(0.971605,0,0,0.971605,-844.371506,-1266.087956)">
        <path d="M912.005,1317.217L909.036,1315.954L909.036,1312.752L918.155,1312.75L918.805,1315.95C919.672,1314.85 920.705,1314 921.905,1313.4C923.105,1312.8 924.605,1312.484 926.405,1312.45C930.072,1312.45 932.622,1313.9 934.055,1316.8C934.989,1315.4 936.214,1314.325 937.73,1313.575C939.247,1312.825 940.972,1312.45 942.905,1312.45C945.672,1312.45 947.922,1313.367 949.655,1315.2C951.389,1317.034 952.255,1320.084 952.255,1324.35L952.255,1338.5L945.205,1338.5L945.205,1324.1C945.205,1320.2 943.722,1318.25 940.755,1318.25C939.222,1318.25 937.989,1318.792 937.055,1319.875C936.122,1320.959 935.655,1322.467 935.655,1324.4L935.655,1338.5L928.605,1338.5L928.605,1324.1C928.605,1320.2 927.105,1318.25 924.105,1318.25C922.572,1318.25 921.347,1318.809 920.43,1319.925C919.514,1321.042 919.055,1322.55 919.055,1324.45L919.055,1338.5L912.005,1338.5L912.005,1317.217ZM982.005,1332.5L982.005,1338.45L978.405,1338.45C975.172,1338.45 973.589,1337.05 973.655,1334.25C972.722,1335.717 971.572,1336.834 970.205,1337.6C968.839,1338.367 967.189,1338.75 965.255,1338.75C962.389,1338.75 960.08,1338.092 958.33,1336.775C956.58,1335.459 955.705,1333.6 955.705,1331.2C955.705,1328.467 956.714,1326.359 958.73,1324.875C960.747,1323.392 963.672,1322.65 967.505,1322.65L972.605,1322.65L972.605,1321.4C972.605,1320.234 972.172,1319.309 971.305,1318.625C970.439,1317.942 969.272,1317.6 967.805,1317.6C966.505,1317.6 965.439,1317.884 964.605,1318.45C963.772,1319.017 963.272,1319.784 963.105,1320.75L956.305,1320.75C956.539,1318.117 957.705,1316.075 959.805,1314.625C961.905,1313.175 964.689,1312.45 968.155,1312.45C971.789,1312.45 974.597,1313.25 976.58,1314.85C978.564,1316.45 979.555,1318.767 979.555,1321.8L979.555,1330.85C979.555,1331.484 979.689,1331.917 979.955,1332.15C980.222,1332.384 980.639,1332.5 981.205,1332.5L982.005,1332.5ZM972.605,1327.35L967.455,1327.35C965.989,1327.35 964.847,1327.642 964.03,1328.225C963.214,1328.809 962.805,1329.634 962.805,1330.7C962.805,1331.6 963.147,1332.317 963.83,1332.85C964.514,1333.384 965.439,1333.65 966.605,1333.65C968.439,1333.65 969.889,1333.125 970.955,1332.075C972.022,1331.025 972.572,1329.617 972.605,1327.85L972.605,1327.35ZM1000.405,1312.75L1000.405,1319.15L997.605,1319.15C995.605,1319.15 994.139,1319.75 993.205,1320.95C992.272,1322.15 991.805,1323.784 991.805,1325.85L991.805,1338.45L984.755,1338.45L984.755,1312.75L991.155,1312.75L991.805,1316.6C992.572,1315.334 993.522,1314.375 994.655,1313.725C995.789,1313.075 997.305,1312.75 999.205,1312.75L1000.405,1312.75ZM1003.555,1303.45L1010.605,1303.45L1010.605,1323.7L1020.705,1312.75L1028.605,1312.75L1019.455,1322.8L1029.105,1338.45L1020.955,1338.45L1014.455,1328.05L1010.605,1332.2L1010.605,1338.45L1003.555,1338.45L1003.555,1303.45ZM1028.855,1325.65C1028.855,1322.984 1029.397,1320.659 1030.48,1318.675C1031.564,1316.692 1033.08,1315.159 1035.03,1314.075C1036.98,1312.992 1039.239,1312.45 1041.805,1312.45C1044.405,1312.45 1046.697,1312.959 1048.68,1313.975C1050.664,1314.992 1052.214,1316.425 1053.33,1318.275C1054.447,1320.125 1055.022,1322.3 1055.055,1324.8C1055.055,1325.7 1054.989,1326.5 1054.855,1327.2L1036.205,1327.2L1036.205,1327.4C1036.372,1329.267 1036.972,1330.734 1038.005,1331.8C1039.039,1332.867 1040.455,1333.4 1042.255,1333.4C1043.689,1333.4 1044.88,1333.092 1045.83,1332.475C1046.78,1331.859 1047.405,1330.95 1047.705,1329.75L1054.655,1329.75C1054.389,1331.45 1053.739,1332.984 1052.705,1334.35C1051.672,1335.717 1050.305,1336.792 1048.605,1337.575C1046.905,1338.359 1044.955,1338.75 1042.755,1338.75C1039.889,1338.75 1037.414,1338.217 1035.33,1337.15C1033.247,1336.084 1031.647,1334.559 1030.53,1332.575C1029.414,1330.592 1028.855,1328.284 1028.855,1325.65ZM1048.005,1322.6C1047.772,1321.034 1047.13,1319.825 1046.08,1318.975C1045.03,1318.125 1043.705,1317.7 1042.105,1317.7C1040.572,1317.7 1039.28,1318.142 1038.23,1319.025C1037.18,1319.909 1036.555,1321.1 1036.355,1322.6L1048.005,1322.6ZM1074.555,1312.75L1074.555,1319.15L1071.755,1319.15C1069.755,1319.15 1068.289,1319.75 1067.355,1320.95C1066.422,1322.15 1065.955,1323.784 1065.955,1325.85L1065.955,1338.45L1058.905,1338.45L1058.905,1312.75L1065.305,1312.75L1065.955,1316.6C1066.722,1315.334 1067.672,1314.375 1068.805,1313.725C1069.939,1313.075 1071.455,1312.75 1073.355,1312.75L1074.555,1312.75Z" style="fill:rgb(46,60,64);"/>
    </g>
    <g transform="matrix(-0.218404,0,-0,-0.218404,177.398301,230.275121)">
        <path d="M698.419,1011.467L667.195,1011.467C667.195,971.859 699.352,939.702 738.96,939.702C778.567,939.702 810.724,971.859 810.724,1011.467L779.5,1011.467C779.5,989.092 761.334,970.926 738.96,970.926C716.585,970.926 698.419,989.092 698.419,1011.467Z" style="fill:rgb(0,103,185);"/>
    </g>
    <g transform="matrix(-0.222824,0,-0,-0.235155,177.497809,276.276658)">
        <rect x="654.382" y="1028.447" width="140.73" height="29" style="fill:rgb(228,0,43);"/>
    </g>
</svg>
